<mxfile host="app.diagrams.net" modified="2021-06-29T08:58:34.330Z" agent="5.0 (Macintosh)" etag="f43KKK7te5qzLkYUyYAm" version="14.7.3" type="github">
  <diagram name="Page-1" id="c4acf3e9-155e-7222-9cf6-157b1a14988f">
    <mxGraphModel dx="892" dy="539" grid="1" gridSize="10" guides="1" tooltips="1" connect="1" arrows="1" fold="1" page="1" pageScale="1" pageWidth="850" pageHeight="1100" background="#ffffff" math="0" shadow="0">
      <root>
        <mxCell id="0" />
        <mxCell id="1" parent="0" />
        <mxCell id="smgrjCHY4chfW_u2ZcEP-9" value="extends" style="endArrow=block;endSize=16;endFill=0;html=1;rounded=0;edgeStyle=orthogonalEdgeStyle;exitX=0.5;exitY=0;exitDx=0;exitDy=0;entryX=0.5;entryY=1;entryDx=0;entryDy=0;fontSize=12;" parent="1" source="8KK2gnAzh4ry85NgPHsd-8" target="8KK2gnAzh4ry85NgPHsd-1" edge="1">
          <mxGeometry x="-0.0357" y="10" width="160" relative="1" as="geometry">
            <mxPoint x="225" y="230" as="sourcePoint" />
            <mxPoint x="445" y="170" as="targetPoint" />
            <mxPoint as="offset" />
            <Array as="points">
              <mxPoint x="245" y="210" />
              <mxPoint x="445" y="210" />
            </Array>
          </mxGeometry>
        </mxCell>
        <mxCell id="smgrjCHY4chfW_u2ZcEP-10" value="" style="endArrow=block;endSize=16;endFill=0;html=1;rounded=0;edgeStyle=orthogonalEdgeStyle;exitX=0.5;exitY=0;exitDx=0;exitDy=0;entryX=0.5;entryY=1;entryDx=0;entryDy=0;" parent="1" target="8KK2gnAzh4ry85NgPHsd-1" edge="1">
          <mxGeometry x="-0.0357" y="10" width="160" relative="1" as="geometry">
            <mxPoint x="445" y="230" as="sourcePoint" />
            <mxPoint x="445" y="170" as="targetPoint" />
            <mxPoint as="offset" />
          </mxGeometry>
        </mxCell>
        <mxCell id="smgrjCHY4chfW_u2ZcEP-11" value="extends" style="endArrow=block;endSize=16;endFill=0;html=1;rounded=0;edgeStyle=orthogonalEdgeStyle;exitX=0.5;exitY=0;exitDx=0;exitDy=0;entryX=0.5;entryY=1;entryDx=0;entryDy=0;fontSize=12;" parent="1" source="8KK2gnAzh4ry85NgPHsd-4" target="8KK2gnAzh4ry85NgPHsd-1" edge="1">
          <mxGeometry x="-0.08" y="-10" width="160" relative="1" as="geometry">
            <mxPoint x="647" y="230" as="sourcePoint" />
            <mxPoint x="445" y="170" as="targetPoint" />
            <mxPoint as="offset" />
            <Array as="points">
              <mxPoint x="647" y="210" />
              <mxPoint x="445" y="210" />
            </Array>
          </mxGeometry>
        </mxCell>
        <mxCell id="smgrjCHY4chfW_u2ZcEP-12" value="1" style="endArrow=open;html=1;endSize=12;startArrow=diamondThin;startSize=14;startFill=1;edgeStyle=orthogonalEdgeStyle;align=left;verticalAlign=bottom;rounded=0;exitX=1;exitY=0.5;exitDx=0;exitDy=0;entryX=0;entryY=0.5;entryDx=0;entryDy=0;fontSize=12;" parent="1" source="8KK2gnAzh4ry85NgPHsd-2" target="8KK2gnAzh4ry85NgPHsd-4" edge="1">
          <mxGeometry x="-0.75" y="10" relative="1" as="geometry">
            <mxPoint x="500" y="265" as="sourcePoint" />
            <mxPoint x="592" y="265" as="targetPoint" />
            <mxPoint as="offset" />
            <Array as="points" />
          </mxGeometry>
        </mxCell>
        <mxCell id="smgrjCHY4chfW_u2ZcEP-13" value="&lt;font style=&quot;font-size: 15px&quot;&gt;*&lt;/font&gt;" style="text;html=1;align=center;verticalAlign=middle;resizable=0;points=[];autosize=1;strokeColor=none;" parent="1" vertex="1">
          <mxGeometry x="572" y="230" width="20" height="20" as="geometry" />
        </mxCell>
        <mxCell id="smgrjCHY4chfW_u2ZcEP-15" value="1" style="endArrow=open;html=1;endSize=12;startArrow=diamondThin;startSize=14;startFill=1;edgeStyle=orthogonalEdgeStyle;align=left;verticalAlign=bottom;rounded=0;exitX=0;exitY=0.5;exitDx=0;exitDy=0;entryX=1;entryY=0.5;entryDx=0;entryDy=0;fontSize=12;" parent="1" source="8KK2gnAzh4ry85NgPHsd-2" target="8KK2gnAzh4ry85NgPHsd-8" edge="1">
          <mxGeometry x="-0.6364" y="-10" relative="1" as="geometry">
            <mxPoint x="390" y="270" as="sourcePoint" />
            <mxPoint x="280" y="270" as="targetPoint" />
            <mxPoint as="offset" />
            <Array as="points" />
          </mxGeometry>
        </mxCell>
        <mxCell id="smgrjCHY4chfW_u2ZcEP-16" value="&lt;font style=&quot;font-size: 15px&quot;&gt;*&lt;/font&gt;" style="text;html=1;align=center;verticalAlign=middle;resizable=0;points=[];autosize=1;strokeColor=none;" parent="1" vertex="1">
          <mxGeometry x="300" y="230" width="20" height="20" as="geometry" />
        </mxCell>
        <mxCell id="smgrjCHY4chfW_u2ZcEP-17" value="" style="endArrow=block;endSize=16;endFill=0;html=1;rounded=0;edgeStyle=orthogonalEdgeStyle;exitX=0.5;exitY=0;exitDx=0;exitDy=0;entryX=0.5;entryY=1;entryDx=0;entryDy=0;" parent="1" edge="1">
          <mxGeometry width="160" relative="1" as="geometry">
            <mxPoint x="463" y="340" as="sourcePoint" />
            <mxPoint x="463" y="280" as="targetPoint" />
          </mxGeometry>
        </mxCell>
        <mxCell id="smgrjCHY4chfW_u2ZcEP-23" value="" style="endArrow=block;endSize=16;endFill=0;html=1;rounded=0;edgeStyle=orthogonalEdgeStyle;exitX=0.5;exitY=0;exitDx=0;exitDy=0;" parent="1" source="8KK2gnAzh4ry85NgPHsd-5" edge="1">
          <mxGeometry width="160" relative="1" as="geometry">
            <mxPoint x="647" y="353" as="sourcePoint" />
            <mxPoint x="647" y="280" as="targetPoint" />
          </mxGeometry>
        </mxCell>
        <mxCell id="8KK2gnAzh4ry85NgPHsd-1" value="FMLObject" style="html=1;fontStyle=1;fontSize=14;" parent="1" vertex="1">
          <mxGeometry x="390" y="120" width="110" height="50" as="geometry" />
        </mxCell>
        <mxCell id="8KK2gnAzh4ry85NgPHsd-2" value="Concept" style="html=1;fontStyle=1;fontSize=14;" parent="1" vertex="1">
          <mxGeometry x="390" y="230" width="110" height="50" as="geometry" />
        </mxCell>
        <mxCell id="8KK2gnAzh4ry85NgPHsd-3" value="VirtualModel" style="html=1;fontStyle=1;fontSize=14;" parent="1" vertex="1">
          <mxGeometry x="390" y="340" width="110" height="50" as="geometry" />
        </mxCell>
        <mxCell id="8KK2gnAzh4ry85NgPHsd-4" value="Role" style="html=1;fontStyle=1;fontSize=14;" parent="1" vertex="1">
          <mxGeometry x="592" y="230" width="110" height="50" as="geometry" />
        </mxCell>
        <mxCell id="8KK2gnAzh4ry85NgPHsd-5" value="ModelSlot" style="html=1;fontStyle=1;fontSize=14;" parent="1" vertex="1">
          <mxGeometry x="592" y="340" width="110" height="50" as="geometry" />
        </mxCell>
        <mxCell id="8KK2gnAzh4ry85NgPHsd-8" value="Behavior" style="html=1;fontStyle=1;fontSize=14;" parent="1" vertex="1">
          <mxGeometry x="190" y="230" width="110" height="50" as="geometry" />
        </mxCell>
        <mxCell id="nESv2ACYVvmA5xmnOtJg-1" value="" style="endArrow=open;html=1;entryX=0.25;entryY=1;entryDx=0;entryDy=0;exitX=0.25;exitY=0;exitDx=0;exitDy=0;startArrow=diamondThin;startFill=1;rounded=0;fontSize=12;align=left;verticalAlign=bottom;endSize=12;startSize=14;" parent="1" edge="1">
          <mxGeometry width="50" height="50" relative="1" as="geometry">
            <mxPoint x="423.5" y="340" as="sourcePoint" />
            <mxPoint x="423.5" y="280" as="targetPoint" />
          </mxGeometry>
        </mxCell>
        <mxCell id="nESv2ACYVvmA5xmnOtJg-2" value="&lt;font style=&quot;font-size: 15px&quot;&gt;*&lt;/font&gt;" style="text;html=1;align=center;verticalAlign=middle;resizable=0;points=[];autosize=1;strokeColor=none;" parent="1" vertex="1">
          <mxGeometry x="400" y="280" width="20" height="20" as="geometry" />
        </mxCell>
      </root>
    </mxGraphModel>
  </diagram>
</mxfile>
